# Blender v2.76 (sub 0) OBJ File: 'Hammer.blend'
# www.blender.org
mtllib Hammer.mtl
g Cylinder.001_Cylinder.002
v -0.949654 0.406384 1.271607
v 1.076691 -0.653387 -1.923844
v -0.921802 0.381379 1.297561
v 1.104543 -0.678392 -1.897889
v -0.889152 0.363884 1.324068
v 1.137192 -0.695886 -1.871383
v -0.852960 0.354572 1.350107
v 1.173384 -0.705198 -1.845344
v -0.814616 0.353801 1.374678
v 1.211729 -0.705969 -1.820772
v -0.775593 0.361600 1.396837
v 1.250751 -0.698171 -1.798613
v -0.737392 0.377670 1.415732
v 1.288953 -0.682101 -1.779718
v -0.701480 0.401392 1.430638
v 1.324865 -0.658379 -1.764812
v -0.669237 0.431855 1.440981
v 1.357108 -0.627915 -1.754469
v -0.641902 0.467890 1.446364
v 1.384442 -0.591881 -1.749086
v -0.620526 0.508110 1.446580
v 1.405818 -0.551661 -1.748870
v -0.605931 0.550970 1.441621
v 1.420413 -0.508801 -1.753829
v -0.598677 0.594823 1.431677
v 1.427668 -0.464947 -1.763773
v -0.599043 0.637985 1.417131
v 1.427302 -0.421786 -1.778320
v -0.607015 0.678795 1.398541
v 1.419330 -0.380976 -1.796909
v -0.622286 0.715686 1.376622
v 1.404059 -0.344085 -1.818829
v -0.644270 0.747241 1.352216
v 1.382075 -0.312530 -1.843234
v -0.672122 0.772245 1.326261
v 1.354223 -0.287525 -1.869189
v -0.704771 0.789740 1.299755
v 1.321573 -0.270031 -1.895695
v -0.740964 0.799052 1.273716
v 1.285381 -0.260719 -1.921734
v -0.779308 0.799823 1.249145
v 1.247037 -0.259948 -1.946306
v -0.818330 0.792024 1.226986
v 1.208014 -0.267747 -1.968465
v -0.856532 0.775955 1.208090
v 1.169813 -0.283816 -1.987360
v -0.892444 0.752232 1.193185
v 1.133900 -0.307539 -2.002266
v -0.924687 0.721768 1.182842
v 1.101657 -0.338002 -2.012609
v -0.952022 0.685734 1.177459
v 1.074323 -0.374036 -2.017992
v -0.973397 0.645514 1.177243
v 1.052947 -0.414257 -2.018208
v -0.987993 0.602654 1.182202
v 1.038352 -0.457117 -2.013248
v -0.995247 0.558801 1.192146
v 1.031098 -0.500970 -2.003304
v -0.994881 0.515639 1.206692
v 1.031464 -0.544131 -1.988758
v -0.986909 0.474829 1.225282
v 1.039436 -0.584942 -1.970168
v -0.971638 0.437938 1.247201
v 1.054707 -0.621833 -1.948249
v -1.418818 -0.247014 1.002060
v -0.142924 1.238681 1.408023
v -1.321936 -0.364062 1.125928
v -0.046042 1.121633 1.531890
v -1.249501 -0.467281 1.276023
v 0.026393 1.018414 1.681986
v -1.204298 -0.552704 1.446578
v 0.071596 0.932991 1.852540
v -1.188063 -0.617049 1.631038
v 0.087830 0.868645 2.037000
v -1.201421 -0.657844 1.822315
v 0.074472 0.827851 2.228277
v -1.243858 -0.673520 2.013058
v 0.032035 0.812175 2.419020
v -1.313743 -0.663475 2.195936
v -0.037850 0.822220 2.601899
v -1.408391 -0.628094 2.363923
v -0.132497 0.857601 2.769885
v -1.524164 -0.568739 2.510561
v -0.248270 0.916956 2.916524
v -1.656613 -0.487689 2.630217
v -0.380720 0.998006 3.036180
v -1.800649 -0.388059 2.718292
v -0.524756 1.097636 3.124254
v -1.950736 -0.273679 2.771401
v -0.674842 1.212016 3.177363
v -2.101106 -0.148943 2.787502
v -0.825212 1.336752 3.193465
v -2.245981 -0.018645 2.765978
v -0.970087 1.467050 3.171941
v -2.379793 0.112207 2.707656
v -1.103899 1.597902 3.113619
v -2.497400 0.238585 2.614776
v -1.221506 1.724280 3.020739
v -2.594282 0.355633 2.490909
v -1.318388 1.841328 2.896872
v -2.666716 0.458852 2.340814
v -1.390823 1.944547 2.746776
v -2.711919 0.544275 2.170259
v -1.436026 2.029970 2.576221
v -2.728154 0.608621 1.985798
v -1.452260 2.094316 2.391761
v -2.714796 0.649415 1.794522
v -1.438902 2.135110 2.200484
v -2.672359 0.665091 1.603778
v -1.396465 2.150785 2.009741
v -2.602473 0.655045 1.420900
v -1.326580 2.140740 1.826863
v -2.507825 0.619665 1.252914
v -1.231932 2.105360 1.658876
v -2.392052 0.560309 1.106275
v -1.116158 2.046004 1.512237
v -2.259603 0.479259 0.986619
v -0.983709 1.964954 1.392582
v -2.115567 0.379629 0.898544
v -0.839673 1.865324 1.304507
v -1.965480 0.265249 0.845436
v -0.689587 1.750944 1.251399
v -1.815110 0.140513 0.829335
v -0.539217 1.626208 1.235297
v -1.670236 0.010215 0.850859
v -0.394342 1.495910 1.256821
v -1.536424 -0.120637 0.909181
v -0.260530 1.365058 1.315144
vt 0.115990 0.656627
vt 0.000336 0.656627
vt 0.000336 0.667908
vt 0.115990 0.667908
vt 0.000336 0.678756
vt 0.115990 0.678756
vt 0.000336 0.688754
vt 0.115990 0.688754
vt 0.000336 0.697517
vt 0.115990 0.697517
vt 0.511138 0.665153
vt 0.395484 0.665153
vt 0.395484 0.656390
vt 0.511138 0.656390
vt 0.395484 0.646392
vt 0.511138 0.646392
vt 0.395484 0.635544
vt 0.511138 0.635544
vt 0.395484 0.624263
vt 0.511138 0.624263
vt 0.395484 0.612981
vt 0.511138 0.612981
vt 0.395484 0.602134
vt 0.511138 0.602134
vt 0.395484 0.592136
vt 0.511138 0.592136
vt 0.395484 0.583373
vt 0.511138 0.583373
vt 0.394813 0.665153
vt 0.279159 0.665153
vt 0.279159 0.656390
vt 0.394813 0.656390
vt 0.279159 0.646392
vt 0.394813 0.646392
vt 0.279159 0.635545
vt 0.394813 0.635545
vt 0.279159 0.624263
vt 0.394813 0.624263
vt 0.279159 0.612981
vt 0.394813 0.612981
vt 0.279159 0.602134
vt 0.394813 0.602134
vt 0.279159 0.592136
vt 0.394813 0.592136
vt 0.279159 0.583373
vt 0.394813 0.583373
vt 0.394813 0.500922
vt 0.279159 0.500922
vt 0.279159 0.509685
vt 0.394813 0.509685
vt 0.279159 0.519683
vt 0.394813 0.519683
vt 0.279159 0.530531
vt 0.394813 0.530531
vt 0.279159 0.541812
vt 0.394813 0.541812
vt 0.279159 0.553094
vt 0.394813 0.553094
vt 0.279159 0.563942
vt 0.394813 0.563942
vt 0.279159 0.573939
vt 0.394813 0.573939
vt 0.279159 0.582702
vt 0.394813 0.582702
vt 0.115990 0.615737
vt 0.000336 0.615737
vt 0.000336 0.624500
vt 0.115990 0.624500
vt 0.000336 0.634497
vt 0.115990 0.634497
vt 0.191159 0.616019
vt 0.180040 0.613808
vt 0.169567 0.609470
vt 0.160142 0.603172
vt 0.152126 0.595156
vt 0.145828 0.585730
vt 0.141490 0.575257
vt 0.139278 0.564139
vt 0.139278 0.552803
vt 0.141490 0.541685
vt 0.145828 0.531211
vt 0.152126 0.521786
vt 0.160142 0.513770
vt 0.169567 0.507472
vt 0.180040 0.503134
vt 0.191159 0.500922
vt 0.202495 0.500922
vt 0.213613 0.503134
vt 0.224086 0.507472
vt 0.233512 0.513770
vt 0.241528 0.521786
vt 0.247826 0.531211
vt 0.252164 0.541685
vt 0.254375 0.552803
vt 0.254375 0.564139
vt 0.252164 0.575257
vt 0.247826 0.585730
vt 0.241528 0.595156
vt 0.233512 0.603172
vt 0.224086 0.609470
vt 0.213613 0.613808
vt 0.202495 0.616019
vt 0.000336 0.645345
vt 0.115990 0.645345
vt 0.041098 0.612854
vt 0.052216 0.615066
vt 0.063552 0.615066
vt 0.074670 0.612854
vt 0.085144 0.608516
vt 0.094569 0.602218
vt 0.102585 0.594202
vt 0.108883 0.584777
vt 0.113221 0.574304
vt 0.115433 0.563185
vt 0.115433 0.551849
vt 0.113221 0.540731
vt 0.108883 0.530258
vt 0.102585 0.520832
vt 0.094569 0.512816
vt 0.085144 0.506518
vt 0.074670 0.502180
vt 0.063552 0.499969
vt 0.052216 0.499969
vt 0.041098 0.502180
vt 0.030625 0.506518
vt 0.021199 0.512816
vt 0.013183 0.520832
vt 0.006885 0.530258
vt 0.002547 0.540731
vt 0.000336 0.551849
vt 0.000336 0.563185
vt 0.002547 0.574304
vt 0.006885 0.584777
vt 0.013183 0.594202
vt 0.021199 0.602218
vt 0.030625 0.608516
vt 0.662904 0.497769
vt 0.662904 0.000336
vt 0.711458 0.000510
vt 0.711458 0.497944
vt 0.394813 0.002817
vt 0.394813 0.500251
vt 0.348124 0.499735
vt 0.348124 0.002301
vt 0.305096 0.498897
vt 0.305096 0.001463
vt 0.267381 0.497769
vt 0.267381 0.000336
vt 0.876157 0.004978
vt 0.876157 0.502412
vt 0.845206 0.501038
vt 0.845206 0.003604
vt 0.822206 0.499471
vt 0.822206 0.002037
vt 0.808044 0.497769
vt 0.808044 0.000336
vt 0.903825 0.996176
vt 0.903825 0.498737
vt 0.909571 0.500482
vt 0.909571 0.997920
vt 0.915317 0.502226
vt 0.915317 0.999664
vt 0.613679 0.497769
vt 0.613679 0.000336
vt 0.599516 0.002037
vt 0.599516 0.499471
vt 0.576517 0.003604
vt 0.576517 0.501038
vt 0.545565 0.004978
vt 0.545565 0.502412
vt 0.507850 0.006106
vt 0.507850 0.503540
vt 0.138607 0.497769
vt 0.138607 0.000336
vt 0.095579 0.001173
vt 0.095579 0.498607
vt 0.048890 0.001690
vt 0.048890 0.499123
vt 0.000336 0.001864
vt 0.000336 0.499298
vt 0.712129 0.000336
vt 0.712129 0.497769
vt 0.760684 0.497944
vt 0.760684 0.000510
vt 0.807373 0.498460
vt 0.807373 0.001026
vt 0.395484 0.000336
vt 0.395484 0.497770
vt 0.438513 0.498607
vt 0.438513 0.001173
vt 0.476227 0.499735
vt 0.476227 0.002301
vt 0.507179 0.501109
vt 0.507179 0.003675
vt 0.668972 0.498615
vt 0.668972 0.996049
vt 0.691971 0.997617
vt 0.691971 0.500183
vt 0.706134 0.999317
vt 0.706134 0.501884
vt 0.903154 0.999664
vt 0.903154 0.502226
vt 0.897408 0.500482
vt 0.897408 0.997920
vt 0.891662 0.498737
vt 0.891662 0.996176
vt 0.876828 0.997872
vt 0.876828 0.500438
vt 0.890991 0.498737
vt 0.890991 0.996171
vt 0.614350 0.998991
vt 0.614350 0.501557
vt 0.637349 0.499989
vt 0.637349 0.997423
vt 0.668301 0.498615
vt 0.668301 0.996049
vt 0.139278 0.500251
vt 0.139278 0.002817
vt 0.176993 0.001690
vt 0.176993 0.499123
vt 0.220022 0.000852
vt 0.220022 0.498286
vt 0.936323 0.297416
vt 0.936323 0.248859
vt 0.937453 0.200314
vt 0.939670 0.153648
vt 0.942889 0.110654
vt 0.946985 0.072985
vt 0.951802 0.042087
vt 0.957155 0.019148
vt 0.962837 0.005051
vt 0.968631 0.000336
vt 0.974313 0.005184
vt 0.979666 0.019410
vt 0.984483 0.042467
vt 0.988580 0.073469
vt 0.991798 0.111223
vt 0.994016 0.154280
vt 0.995146 0.200985
vt 0.995146 0.249543
vt 0.994016 0.298088
vt 0.991798 0.344754
vt 0.988580 0.387748
vt 0.984483 0.425417
vt 0.979666 0.456315
vt 0.974313 0.479254
vt 0.968631 0.493351
vt 0.962837 0.498066
vt 0.957155 0.493218
vt 0.951803 0.478992
vt 0.946985 0.455935
vt 0.942889 0.424933
vt 0.939670 0.387178
vt 0.937453 0.344121
vt 0.266710 0.000336
vt 0.266710 0.497769
vt 0.614350 0.497944
vt 0.614350 0.000510
vt 0.876828 0.249543
vt 0.877959 0.298088
vt 0.880176 0.344754
vt 0.883395 0.387748
vt 0.887491 0.425417
vt 0.892308 0.456315
vt 0.897661 0.479254
vt 0.903343 0.493351
vt 0.909137 0.498066
vt 0.914819 0.493218
vt 0.920172 0.478992
vt 0.924989 0.455935
vt 0.929086 0.424933
vt 0.932304 0.387178
vt 0.934521 0.344121
vt 0.935652 0.297416
vt 0.935652 0.248858
vt 0.934521 0.200314
vt 0.932304 0.153648
vt 0.929086 0.110654
vt 0.924989 0.072984
vt 0.920172 0.042087
vt 0.914819 0.019148
vt 0.909137 0.005051
vt 0.903343 0.000336
vt 0.897661 0.005184
vt 0.892308 0.019410
vt 0.887491 0.042467
vt 0.883395 0.073469
vt 0.880176 0.111224
vt 0.877959 0.154281
vt 0.876828 0.200986
vn -0.831900 -0.348900 0.431300
vn -0.124700 -0.718800 -0.683900
vn -0.037500 -0.797200 -0.602600
vn -0.744700 -0.427300 0.512600
vn 0.064800 -0.852000 -0.519500
vn -0.642400 -0.482100 0.595700
vn 0.178200 -0.881100 -0.437900
vn -0.529000 -0.511300 0.677300
vn 0.298300 -0.883600 -0.361000
vn -0.408900 -0.513700 0.754200
vn 0.420500 -0.859100 -0.291500
vn -0.286700 -0.489200 0.823700
vn 0.540200 -0.808800 -0.232400
vn -0.167000 -0.438900 0.882800
vn 0.652700 -0.734500 -0.185700
vn -0.054500 -0.364600 0.929500
vn 0.753700 -0.639000 -0.153300
vn 0.046500 -0.269200 0.961900
vn 0.839400 -0.526100 -0.136400
vn 0.132100 -0.156300 0.978800
vn 0.906300 -0.400200 -0.135700
vn 0.199100 -0.030300 0.979500
vn 0.952100 -0.265900 -0.151200
vn 0.244800 0.104000 0.964000
vn 0.974800 -0.128500 -0.182400
vn 0.267600 0.241300 0.932800
vn 0.973600 0.006700 -0.228000
vn 0.266400 0.376600 0.887200
vn 0.948600 0.134500 -0.286200
vn 0.241400 0.504400 0.829000
vn 0.900800 0.250100 -0.354900
vn 0.193600 0.620000 0.760300
vn 0.831900 0.348900 -0.431300
vn 0.124700 0.718800 0.683900
vn 0.744700 0.427300 -0.512600
vn 0.037500 0.797200 0.602600
vn 0.642400 0.482100 -0.595700
vn -0.064800 0.852000 0.519500
vn 0.529000 0.511300 -0.677300
vn -0.178200 0.881100 0.437900
vn 0.408900 0.513700 -0.754200
vn -0.298300 0.883600 0.361000
vn 0.286700 0.489200 -0.823700
vn -0.420500 0.859100 0.291500
vn 0.167000 0.438900 -0.882800
vn -0.540200 0.808800 0.232400
vn 0.054500 0.364600 -0.929500
vn -0.652700 0.734500 0.185700
vn -0.046500 0.269200 -0.961900
vn -0.753700 0.639000 0.153300
vn -0.132100 0.156300 -0.978800
vn -0.839400 0.526100 0.136400
vn -0.199100 0.030300 -0.979500
vn -0.906300 0.400200 0.135700
vn -0.244800 -0.104000 -0.964000
vn -0.952100 0.265900 0.151200
vn -0.267600 -0.241300 -0.932800
vn -0.974800 0.128500 0.182400
vn -0.266400 -0.376600 -0.887200
vn -0.973600 -0.006700 0.228000
vn -0.241400 -0.504400 -0.829000
vn -0.948600 -0.134500 0.286200
vn -0.193600 -0.620000 -0.760300
vn -0.900800 -0.250100 0.354900
vn -0.044900 -0.686100 -0.726100
vn 0.830000 0.332600 -0.447700
vn 0.900500 0.247400 -0.357600
vn 0.025600 -0.771300 -0.635900
vn 0.953200 0.172300 -0.248300
vn 0.078300 -0.846400 -0.526700
vn 0.986100 0.110100 -0.124200
vn 0.111200 -0.908600 -0.402500
vn 0.997900 0.063300 0.010000
vn 0.123100 -0.955400 -0.268300
vn 0.988200 0.033600 0.149300
vn 0.113300 -0.985100 -0.129100
vn 0.957300 0.022200 0.288100
vn 0.082400 -0.996500 0.009800
vn 0.906500 0.029500 0.421200
vn 0.031600 -0.989200 0.142900
vn 0.837500 0.055200 0.543500
vn -0.037300 -0.963500 0.265100
vn 0.753300 0.098500 0.650300
vn -0.121600 -0.920300 0.371900
vn 0.656900 0.157400 0.737400
vn -0.218000 -0.861300 0.459000
vn 0.552000 0.230000 0.801400
vn -0.322800 -0.788800 0.523100
vn 0.442800 0.313200 0.840100
vn -0.432100 -0.705500 0.561800
vn 0.333300 0.404000 0.851800
vn -0.541500 -0.614700 0.573500
vn 0.227900 0.498900 0.836200
vn -0.647000 -0.519900 0.557800
vn 0.130500 0.594100 0.793700
vn -0.744300 -0.424600 0.515300
vn 0.044900 0.686100 0.726100
vn -0.830000 -0.332600 0.447700
vn -0.025600 0.771300 0.635900
vn -0.900500 -0.247400 0.357600
vn -0.078300 0.846400 0.526700
vn -0.953200 -0.172300 0.248300
vn -0.111200 0.908600 0.402500
vn -0.986100 -0.110100 0.124200
vn -0.123100 0.955400 0.268300
vn -0.997900 -0.063300 -0.010000
vn -0.113300 0.985100 0.129100
vn -0.988200 -0.033600 -0.149300
vn -0.082400 0.996500 -0.009800
vn -0.957300 -0.022200 -0.288100
vn -0.031600 0.989200 -0.142900
vn -0.906500 -0.029500 -0.421200
vn 0.037300 0.963500 -0.265100
vn -0.837500 -0.055200 -0.543500
vn 0.121600 0.920300 -0.371900
vn -0.753300 -0.098500 -0.650300
vn 0.218000 0.861300 -0.459000
vn -0.656900 -0.157400 -0.737400
vn 0.322800 0.788800 -0.523100
vn -0.552000 -0.230000 -0.801400
vn 0.432100 0.705500 -0.561800
vn -0.442800 -0.313200 -0.840100
vn 0.541500 0.614700 -0.573500
vn -0.333300 -0.404000 -0.851800
vn 0.647000 0.519900 -0.557800
vn -0.227900 -0.498900 -0.836200
vn 0.744400 0.424600 -0.515300
vn -0.130500 -0.594100 -0.793700
usemtl Material.001
s 1
f 1/1/1 2/2/2 4/3/3 3/4/4
f 3/4/4 4/3/3 6/5/5 5/6/6
f 5/6/6 6/5/5 8/7/7 7/8/8
f 7/8/8 8/7/7 10/9/9 9/10/10
f 9/11/10 10/12/9 12/13/11 11/14/12
f 11/14/12 12/13/11 14/15/13 13/16/14
f 13/16/14 14/15/13 16/17/15 15/18/16
f 15/18/16 16/17/15 18/19/17 17/20/18
f 17/20/18 18/19/17 20/21/19 19/22/20
f 19/22/20 20/21/19 22/23/21 21/24/22
f 21/24/22 22/23/21 24/25/23 23/26/24
f 23/26/24 24/25/23 26/27/25 25/28/26
f 25/29/26 26/30/25 28/31/27 27/32/28
f 27/32/28 28/31/27 30/33/29 29/34/30
f 29/34/30 30/33/29 32/35/31 31/36/32
f 31/36/32 32/35/31 34/37/33 33/38/34
f 33/38/34 34/37/33 36/39/35 35/40/36
f 35/40/36 36/39/35 38/41/37 37/42/38
f 37/42/38 38/41/37 40/43/39 39/44/40
f 39/44/40 40/43/39 42/45/41 41/46/42
f 41/47/42 42/48/41 44/49/43 43/50/44
f 43/50/44 44/49/43 46/51/45 45/52/46
f 45/52/46 46/51/45 48/53/47 47/54/48
f 47/54/48 48/53/47 50/55/49 49/56/50
f 49/56/50 50/55/49 52/57/51 51/58/52
f 51/58/52 52/57/51 54/59/53 53/60/54
f 53/60/54 54/59/53 56/61/55 55/62/56
f 55/62/56 56/61/55 58/63/57 57/64/58
f 57/65/58 58/66/57 60/67/59 59/68/60
f 59/68/60 60/67/59 62/69/61 61/70/62
f 4/71/3 2/72/2 64/73/63 62/74/61 60/75/59 58/76/57 56/77/55 54/78/53 52/79/51 50/80/49 48/81/47 46/82/45 44/83/43 42/84/41 40/85/39 38/86/37 36/87/35 34/88/33 32/89/31 30/90/29 28/91/27 26/92/25 24/93/23 22/94/21 20/95/19 18/96/17 16/97/15 14/98/13 12/99/11 10/100/9 8/101/7 6/102/5
f 61/70/62 62/69/61 64/103/63 63/104/64
f 63/104/64 64/103/63 2/2/2 1/1/1
f 1/105/1 3/106/4 5/107/6 7/108/8 9/109/10 11/110/12 13/111/14 15/112/16 17/113/18 19/114/20 21/115/22 23/116/24 25/117/26 27/118/28 29/119/30 31/120/32 33/121/34 35/122/36 37/123/38 39/124/40 41/125/42 43/126/44 45/127/46 47/128/48 49/129/50 51/130/52 53/131/54 55/132/56 57/133/58 59/134/60 61/135/62 63/136/64
f 65/137/65 66/138/66 68/139/67 67/140/68
f 67/141/68 68/142/67 70/143/69 69/144/70
f 69/144/70 70/143/69 72/145/71 71/146/72
f 71/146/72 72/145/71 74/147/73 73/148/74
f 73/149/74 74/150/73 76/151/75 75/152/76
f 75/152/76 76/151/75 78/153/77 77/154/78
f 77/154/78 78/153/77 80/155/79 79/156/80
f 79/157/80 80/158/79 82/159/81 81/160/82
f 81/160/82 82/159/81 84/161/83 83/162/84
f 83/163/84 84/164/83 86/165/85 85/166/86
f 85/166/86 86/165/85 88/167/87 87/168/88
f 87/168/88 88/167/87 90/169/89 89/170/90
f 89/170/90 90/169/89 92/171/91 91/172/92
f 91/173/92 92/174/91 94/175/93 93/176/94
f 93/176/94 94/175/93 96/177/95 95/178/96
f 95/178/96 96/177/95 98/179/97 97/180/98
f 97/181/98 98/182/97 100/183/99 99/184/100
f 99/184/100 100/183/99 102/185/101 101/186/102
f 101/187/102 102/188/101 104/189/103 103/190/104
f 103/190/104 104/189/103 106/191/105 105/192/106
f 105/192/106 106/191/105 108/193/107 107/194/108
f 107/195/108 108/196/107 110/197/109 109/198/110
f 109/198/110 110/197/109 112/199/111 111/200/112
f 111/201/112 112/202/111 114/203/113 113/204/114
f 113/204/114 114/203/113 116/205/115 115/206/116
f 115/207/116 116/208/115 118/209/117 117/210/118
f 117/211/118 118/212/117 120/213/119 119/214/120
f 119/214/120 120/213/119 122/215/121 121/216/122
f 121/217/122 122/218/121 124/219/123 123/220/124
f 123/220/124 124/219/123 126/221/125 125/222/126
f 68/223/67 66/224/66 128/225/127 126/226/125 124/227/123 122/228/121 120/229/119 118/230/117 116/231/115 114/232/113 112/233/111 110/234/109 108/235/107 106/236/105 104/237/103 102/238/101 100/239/99 98/240/97 96/241/95 94/242/93 92/243/91 90/244/89 88/245/87 86/246/85 84/247/83 82/248/81 80/249/79 78/250/77 76/251/75 74/252/73 72/253/71 70/254/69
f 125/222/126 126/221/125 128/255/127 127/256/128
f 127/257/128 128/258/127 66/138/66 65/137/65
f 65/259/65 67/260/68 69/261/70 71/262/72 73/263/74 75/264/76 77/265/78 79/266/80 81/267/82 83/268/84 85/269/86 87/270/88 89/271/90 91/272/92 93/273/94 95/274/96 97/275/98 99/276/100 101/277/102 103/278/104 105/279/106 107/280/108 109/281/110 111/282/112 113/283/114 115/284/116 117/285/118 119/286/120 121/287/122 123/288/124 125/289/126 127/290/128
